<?xml version="1.0" standalone="no"?>
<!DOCTYPE svg PUBLIC "-//W3C//DTD SVG 20010904//EN"
 "http://www.w3.org/TR/2001/REC-SVG-20010904/DTD/svg10.dtd">
<svg version="1.0" xmlns="http://www.w3.org/2000/svg"
 width="375.000000pt" height="666.000000pt" viewBox="0 0 375.000000 666.000000"
 preserveAspectRatio="xMidYMid meet">
<metadata>
Created by potrace 1.15, written by Peter Selinger 2001-2017
</metadata>
<g transform="translate(0.000000,666.000000) scale(0.100000,-0.100000)"
fill="#000000" stroke="none">
<path d="M0 3330 l0 -3330 1875 0 1875 0 0 3330 0 3330 -1875 0 -1875 0 0
-3330z m1823 1693 c-13 -2 -35 -2 -50 0 -16 2 -5 4 22 4 28 0 40 -2 28 -4z
m160 0 c-13 -2 -33 -2 -45 0 -13 2 -3 4 22 4 25 0 35 -2 23 -4z m170 0 c-13
-2 -35 -2 -50 0 -16 2 -5 4 22 4 28 0 40 -2 28 -4z m170 0 c-13 -2 -33 -2 -45
0 -13 2 -3 4 22 4 25 0 35 -2 23 -4z m-19 -85 c8 -28 47 -171 81 -298 19 -74
45 -169 56 -210 12 -41 34 -124 50 -185 16 -60 39 -144 50 -185 11 -41 23 -86
26 -100 3 -14 11 -31 17 -39 6 -8 -8 -1 -32 16 -51 37 -145 60 -285 69 -65 5
-95 10 -88 17 12 12 238 -9 294 -28 45 -16 45 -17 12 101 -14 49 -34 123 -46
164 -11 41 -29 104 -39 140 -10 36 -30 110 -44 165 -15 55 -30 114 -35 130 -5
17 -19 69 -32 118 l-23 87 -207 0 -207 0 -68 -127 c-109 -209 -164 -311 -231
-436 -34 -65 -63 -120 -63 -121 0 -2 -61 -117 -135 -257 l-135 -254 172 -3
c129 -2 175 1 184 10 6 7 52 92 101 188 50 96 122 236 160 310 105 203 165
312 170 306 3 -2 13 -35 24 -73 10 -37 37 -131 59 -208 88 -306 103 -375 92
-401 -7 -13 -15 -24 -20 -24 -4 0 -15 32 -25 72 -36 156 -139 518 -147 518 -3
0 -44 -76 -91 -168 -47 -92 -125 -245 -174 -339 -49 -95 -86 -176 -82 -179 4
-4 126 -6 272 -5 232 2 265 0 265 -13 0 -8 -9 -20 -19 -26 -13 -6 -186 -10
-493 -10 l-473 0 -58 -113 c-32 -61 -82 -157 -111 -212 -28 -55 -94 -180 -144
-277 l-92 -178 178 0 178 0 22 48 c12 26 51 103 88 172 36 69 84 159 105 201
l40 76 67 7 c37 3 185 6 329 6 249 0 263 -1 273 -19 5 -11 10 -22 10 -25 0 -3
-146 -6 -325 -6 l-324 0 -20 -42 c-11 -24 -47 -95 -81 -158 -34 -63 -84 -159
-112 -212 l-50 -98 -176 0 c-97 0 -201 -3 -229 -6 -42 -5 -53 -3 -53 8 0 8 4
18 9 24 4 5 50 90 101 189 51 99 112 216 135 260 23 44 73 139 110 210 37 72
82 157 100 190 42 77 110 207 192 365 36 69 69 130 73 135 4 6 40 73 80 150
40 77 94 181 120 230 118 225 160 306 160 311 0 3 -17 5 -37 4 -21 -1 -56 -2
-77 -1 l-39 1 23 25 23 25 309 0 c238 0 309 -3 312 -12z m-734 -1 c0 -2 -10
-12 -22 -23 l-23 -19 19 23 c18 21 26 27 26 19z m-80 -91 c0 -2 -8 -10 -17
-17 -16 -13 -17 -12 -4 4 13 16 21 21 21 13z m103 -171 c-3 -9 -8 -14 -10 -11
-3 3 -2 9 2 15 9 16 15 13 8 -4z m904 -157 c-3 -8 -6 -5 -6 6 -1 11 2 17 5 13
3 -3 4 -12 1 -19z m-1327 -341 c0 -2 -15 -13 -32 -26 l-33 -22 28 25 c26 24
37 31 37 23z m1461 -14 c13 -16 12 -17 -3 -4 -17 13 -22 21 -14 21 2 0 10 -8
17 -17z m-1338 -48 c-3 -9 -8 -14 -10 -11 -3 3 -2 9 2 15 9 16 15 13 8 -4z
m704 -7 c-3 -8 -6 -5 -6 6 -1 11 2 17 5 13 3 -3 4 -12 1 -19z m-897 3 c0 -5
-7 -12 -16 -15 -14 -5 -15 -4 -4 9 14 17 20 19 20 6z m873 -67 c36 3 43 1 44
-15 2 -17 -6 -19 -68 -19 -60 0 -69 2 -69 18 0 26 10 33 31 21 10 -5 38 -8 62
-5z m777 1 c7 -9 8 -15 2 -15 -5 0 -12 7 -16 15 -3 8 -4 15 -2 15 2 0 9 -7 16
-15z m-1730 -25 c-12 -16 -24 -30 -26 -30 -3 0 4 14 16 30 12 17 24 30 26 30
3 0 -4 -13 -16 -30z m156 -8 c-17 -16 -18 -16 -5 5 7 12 15 20 18 17 3 -2 -3
-12 -13 -22z m1654 -76 c0 -6 -7 -1 -15 10 -8 10 -15 23 -15 28 0 6 7 1 15
-10 8 -10 15 -23 15 -28z m-1720 5 c-5 -11 -15 -23 -21 -27 -6 -3 -3 5 6 20
20 30 30 35 15 7z m-166 -26 c-9 -14 -18 -25 -21 -25 -5 0 5 18 20 38 17 22
18 13 1 -13z m1784 -50 c-3 -3 -9 2 -12 12 -6 14 -5 15 5 6 7 -7 10 -15 7 -18z
m152 -11 c12 -19 21 -37 18 -39 -2 -2 -14 14 -26 36 -28 49 -22 52 8 3z m-203
-16 c-3 -7 -5 -2 -5 12 0 14 2 19 5 13 2 -7 2 -19 0 -25z m15 -40 c-1 -8 9
-27 22 -41 14 -15 22 -27 19 -27 -4 0 2 -7 13 -15 13 -11 14 -14 4 -13 -12 3
-47 47 -84 107 -3 5 2 8 11 6 10 -1 17 -9 15 -17z m93 -18 c9 -16 13 -30 11
-30 -3 0 -12 14 -21 30 -9 17 -13 30 -11 30 3 0 12 -13 21 -30z m155 -25 c7
-9 8 -15 2 -15 -5 0 -12 7 -16 15 -3 8 -4 15 -2 15 2 0 9 -7 16 -15z m-1959
-22 c-12 -20 -14 -14 -5 12 4 9 9 14 11 11 3 -2 0 -13 -6 -23z m2022 0 c-7 -2
-21 -2 -30 0 -10 3 -4 5 12 5 17 0 24 -2 18 -5z m86 -18 c1 -2 1 -8 0 -13 -2
-5 -17 0 -34 10 l-30 20 30 -7 c16 -4 32 -8 34 -10z m-283 -55 c16 0 38 -7 48
-15 11 -8 27 -15 37 -15 9 0 28 -9 43 -21 14 -11 31 -17 38 -13 7 4 10 4 6 0
-3 -4 2 -16 13 -27 10 -10 20 -31 20 -46 1 -16 3 -38 4 -50 1 -12 -4 -30 -12
-40 -8 -10 -31 -52 -51 -93 -38 -77 -64 -100 -127 -114 l-30 -7 30 19 c33 21
62 95 50 131 -3 12 0 24 10 33 44 36 52 48 59 88 8 49 3 58 -19 40 -19 -16
-27 -8 -31 25 -2 16 1 23 8 19 7 -4 8 -2 4 5 -4 6 -12 9 -17 6 -5 -3 -24 -2
-43 3 -23 7 -38 6 -45 -1 -8 -8 -11 -4 -11 14 -1 22 -2 23 -14 7 -7 -10 -16
-15 -19 -11 -4 3 -7 1 -7 -5 0 -7 5 -12 12 -12 6 0 9 -3 6 -6 -4 -3 -15 -1
-25 4 -19 10 -76 -8 -88 -28 -3 -5 -16 -10 -29 -10 -12 0 -27 -5 -32 -10 -6
-6 -39 -24 -72 -40 l-62 -29 0 33 c0 28 -3 33 -19 29 -11 -3 -21 2 -25 13 -6
16 -8 15 -27 -2 -16 -15 -22 -16 -29 -5 -4 8 -15 11 -24 8 -8 -3 -18 -2 -21 3
-3 5 3 11 12 13 10 2 3 3 -16 1 -19 -2 -38 -9 -42 -15 -4 -7 -14 -9 -23 -6 -9
4 -16 2 -16 -3 0 -6 -5 -10 -11 -10 -5 0 -7 5 -4 10 4 6 -5 10 -19 10 -14 0
-26 -4 -26 -10 0 -5 -8 -10 -17 -10 -15 0 -16 2 -3 10 10 7 -3 9 -42 7 -32 -1
-58 -6 -58 -10 0 -4 -9 -3 -20 3 -16 9 -19 8 -14 -7 3 -10 -6 2 -20 27 -14 25
-25 50 -26 55 0 7 44 9 128 7 70 -2 213 1 317 6 105 5 192 8 194 7 2 -2 -13
-18 -33 -35 -20 -18 -36 -36 -36 -40 0 -5 36 9 79 30 43 22 91 42 105 46 32 8
42 22 27 37 -19 19 -12 31 7 14 10 -10 32 -17 48 -17z m-1999 -52 c-3 -8 -6
-5 -6 6 -1 11 2 17 5 13 3 -3 4 -12 1 -19z m117 -22 c-3 -15 -8 -25 -11 -23
-2 3 -1 17 3 31 3 15 8 25 11 23 2 -3 1 -17 -3 -31z m1926 -46 c0 -33 -34
-138 -50 -154 -18 -18 -20 1 -6 55 7 30 12 62 10 72 -1 9 1 17 6 17 5 0 12 9
15 20 10 30 25 24 25 -10z m-1949 -36 c-5 -21 -9 -30 -10 -19 -1 24 10 67 15
62 3 -2 0 -22 -5 -43z m37 -69 c-6 -14 -13 -23 -15 -21 -5 5 15 46 22 46 3 0
-1 -11 -7 -25z m-171 -37 c-3 -8 -6 -5 -6 6 -1 11 2 17 5 13 3 -3 4 -12 1 -19z
m116 -38 c3 -11 1 -20 -4 -20 -5 0 -9 9 -9 20 0 11 2 20 4 20 2 0 6 -9 9 -20z
m1077 -125 c0 -16 -6 -25 -15 -25 -9 0 -15 9 -15 25 0 16 6 25 15 25 9 0 15
-9 15 -25z m1047 -7 c-3 -8 -6 -5 -6 6 -1 11 2 17 5 13 3 -3 4 -12 1 -19z
m-220 -14 c-3 -3 -12 -4 -19 -1 -8 3 -5 6 6 6 11 1 17 -2 13 -5z m-1299 -41
c-10 -2 -26 -2 -35 0 -10 3 -2 5 17 5 19 0 27 -2 18 -5z m859 1 c-3 -3 -12 -4
-19 -1 -8 3 -5 6 6 6 11 1 17 -2 13 -5z m1076 -1 c-7 -2 -19 -2 -25 0 -7 3 -2
5 12 5 14 0 19 -2 13 -5z m-1476 -9 c-3 -3 -12 -4 -19 -1 -8 3 -5 6 6 6 11 1
17 -2 13 -5z m1430 0 c-3 -3 -12 -4 -19 -1 -8 3 -5 6 6 6 11 1 17 -2 13 -5z
m-2906 -41 c13 -16 12 -17 -3 -4 -10 7 -18 15 -18 17 0 8 8 3 21 -13z m160 -1
c-13 -2 -27 0 -32 5 -6 6 3 7 23 4 28 -4 29 -6 9 -9z m2549 0 c0 -4 -20 -12
-45 -18 -52 -12 -48 -1 5 14 19 6 36 11 38 11 1 1 2 -2 2 -7z m-2620 -115 c0
-12 0 -11 -24 28 l-17 30 20 -24 c12 -13 21 -28 21 -34z m2356 -32 c-15 -19
-30 -35 -34 -35 -14 1 -47 32 -37 36 6 3 28 13 50 23 22 10 42 17 44 15 2 -2
-8 -19 -23 -39z m-956 25 c0 -5 -5 -10 -11 -10 -5 0 -7 5 -4 10 3 6 8 10 11
10 2 0 4 -4 4 -10z m5 -30 c3 -5 1 -10 -4 -10 -6 0 -11 5 -11 10 0 6 2 10 4
10 3 0 8 -4 11 -10z m-1350 -51 c9 -17 15 -33 13 -35 -3 -2 -12 12 -21 31 -21
43 -13 47 8 4z m2660 -8 c-21 -43 -29 -39 -8 4 9 19 18 33 21 31 2 -2 -4 -18
-13 -35z m-54 -98 c-12 -20 -14 -14 -5 12 4 9 9 14 11 11 3 -2 0 -13 -6 -23z
m-3024 11 c-3 -3 -12 -4 -19 -1 -8 3 -5 6 6 6 11 1 17 -2 13 -5z m-37 -73 c0
-32 -6 -24 -14 19 -4 25 -3 31 4 20 5 -8 10 -26 10 -39z m3313 -28 c-7 -2 -21
-2 -30 0 -10 3 -4 5 12 5 17 0 24 -2 18 -5z m-3326 -80 c-3 -10 -5 -2 -5 17 0
19 2 27 5 18 2 -10 2 -26 0 -35z m3328 -45 c-4 -18 -11 -37 -15 -42 -5 -5 -4
10 2 33 12 48 23 56 13 9z m-3009 16 c48 -5 51 -7 46 -30 -4 -22 -9 -24 -62
-24 -42 0 -59 -4 -64 -15 -4 -12 4 -15 43 -15 56 0 60 -2 53 -35 -4 -23 -9
-25 -57 -25 -44 0 -54 -3 -58 -20 -5 -18 0 -20 55 -20 59 0 59 0 56 -27 l-3
-28 -99 -3 -99 -3 6 28 c3 15 13 69 23 120 19 98 15 94 84 100 14 2 48 0 76
-3z m401 -2 c10 -6 63 -198 63 -229 0 -8 -13 -13 -30 -13 -23 0 -33 6 -40 25
-8 22 -15 25 -59 25 -41 0 -51 -4 -65 -25 -11 -17 -26 -25 -46 -25 -35 0 -38
16 -12 51 10 13 40 60 67 104 27 44 54 83 59 87 14 10 48 10 63 0z m-720 -79
c-2 -16 -4 -3 -4 27 0 30 2 43 4 28 2 -16 2 -40 0 -55z m1124 57 c-20 -18 -61
-28 -61 -16 0 14 35 36 58 36 l27 -1 -24 -19z m87 -15 c-3 -31 -2 -34 17 -29
29 7 72 -11 86 -37 8 -16 8 -31 0 -59 -15 -51 -43 -74 -89 -73 -20 1 -54 2
-76 2 -35 0 -38 2 -32 23 3 13 13 61 22 108 9 47 18 88 21 93 2 4 16 7 30 7
23 0 25 -3 21 -35z m412 20 c0 -8 -10 -59 -21 -114 -18 -82 -25 -100 -42 -105
-30 -8 -39 2 -32 37 8 45 36 170 41 185 5 17 54 15 54 -3z m252 -42 c24 -22
23 -52 -4 -80 -19 -20 -20 -27 -10 -43 11 -18 9 -20 -18 -20 -19 0 -33 7 -40
20 -6 11 -18 20 -26 20 -9 0 -18 -9 -21 -20 -4 -14 -14 -20 -35 -20 -25 0 -29
3 -23 18 3 9 11 40 17 67 6 28 12 56 14 63 5 19 123 16 146 -5z m208 -3 c0
-17 -7 -20 -50 -20 -58 0 -68 -17 -12 -22 25 -2 37 -8 37 -18 0 -11 -13 -16
-47 -18 -36 -2 -48 -7 -48 -19 0 -12 8 -15 39 -10 42 5 68 -4 57 -22 -4 -6
-38 -11 -83 -11 -73 0 -75 1 -69 23 3 12 11 48 17 80 l12 57 73 0 c67 0 74 -2
74 -20z m114 -21 c30 -45 35 -45 45 3 5 26 12 34 34 36 30 4 33 -6 18 -54 -5
-16 -12 -46 -16 -66 -5 -34 -9 -38 -35 -38 -20 0 -33 7 -41 23 -6 12 -19 30
-27 40 -15 17 -17 16 -27 -20 -9 -31 -16 -39 -39 -41 -22 -3 -27 0 -23 12 6
15 20 67 31 119 10 43 47 37 80 -14z m296 21 c0 -16 -7 -20 -30 -20 -17 0 -32
-6 -34 -12 -2 -7 -10 -34 -16 -60 -11 -41 -16 -48 -37 -48 -24 0 -25 2 -18 46
3 26 9 53 12 60 4 10 -3 14 -21 14 -19 0 -26 5 -26 20 0 18 7 20 85 20 78 0
85 -2 85 -20z m259 7 c19 -23 -7 -36 -58 -30 -53 6 -75 -10 -69 -49 3 -21 8
-23 55 -23 79 -1 86 -24 14 -46 -53 -16 -105 2 -121 41 -15 37 -7 63 31 95 24
20 41 25 84 25 31 0 57 -5 64 -13z m174 -39 c32 -104 32 -108 4 -108 -14 0
-27 7 -31 15 -8 21 -75 20 -90 -1 -7 -9 -23 -14 -39 -12 l-27 3 56 78 c47 64
61 77 84 77 24 0 29 -6 43 -52z m229 35 c25 -23 23 -58 -6 -81 -17 -13 -22
-23 -15 -33 14 -22 11 -29 -15 -29 -14 0 -31 9 -40 21 -16 24 -46 20 -46 -6 0
-10 -10 -15 -30 -15 -34 0 -34 -2 -3 108 l14 52 61 0 c43 0 67 -5 80 -17z
m-2654 -9 c40 -11 22 -38 -28 -45 -35 -4 -40 -7 -25 -13 75 -28 88 -48 56 -87
-16 -21 -28 -24 -79 -24 -67 0 -82 8 -65 33 8 13 21 16 58 13 33 -2 45 0 41 8
-4 6 -16 11 -27 11 -54 0 -79 50 -41 82 30 27 65 34 110 22z m477 -8 c16 -11
17 -22 12 -81 -7 -71 -16 -86 -48 -78 -16 5 -18 12 -12 64 5 47 3 59 -8 59
-28 0 -41 -18 -52 -71 -12 -54 -28 -68 -62 -56 -10 5 -11 15 -3 49 6 24 13 59
17 78 7 37 6 37 122 48 8 1 24 -4 34 -12z m513 -10 c12 -12 13 -27 6 -78 l-9
-63 -59 -7 c-64 -8 -91 0 -99 31 -8 33 19 59 68 67 55 8 59 24 6 24 -48 0 -62
24 -23 39 34 13 91 6 110 -13z m-388 3 c0 -5 -7 -41 -16 -80 -15 -66 -17 -69
-45 -69 -24 0 -29 4 -25 18 3 9 10 45 17 80 11 59 13 62 40 62 16 0 29 -5 29
-11z m-1103 -116 c-3 -10 -5 -4 -5 12 0 17 2 24 5 18 2 -7 2 -21 0 -30z m10
-145 c-3 -8 -6 -5 -6 6 -1 11 2 17 5 13 3 -3 4 -12 1 -19z m2512 -11 c-2 -2
-17 -11 -34 -21 l-30 -17 24 20 c13 12 28 21 34 21 6 0 8 -1 6 -3z m-119 -72
c0 -2 -10 -9 -22 -15 -22 -11 -22 -10 -4 4 21 17 26 19 26 11z m-2393 -102
c-3 -10 -5 -2 -5 17 0 19 2 27 5 18 2 -10 2 -26 0 -35z m2293 43 c0 -2 -7 -7
-16 -10 -8 -3 -12 -2 -9 4 6 10 25 14 25 6z m-840 -66 c8 -5 11 -10 5 -10 -5
0 -17 5 -25 10 -8 5 -10 10 -5 10 6 0 17 -5 25 -10z m620 -65 c0 -2 -13 -11
-30 -20 -38 -19 -40 -11 -2 9 31 17 32 18 32 11z m-110 -58 c0 -2 -10 -12 -22
-23 l-23 -19 19 23 c18 21 26 27 26 19z"/>
<path d="M2378 3563 c6 -2 18 -2 25 0 6 3 1 5 -13 5 -14 0 -19 -2 -12 -5z"/>
<path d="M807 2507 c-22 -34 -22 -37 8 -37 25 0 29 10 16 44 -7 17 -8 16 -24
-7z"/>
<path d="M1354 2492 c-17 -10 -25 -45 -15 -61 13 -20 57 -6 64 20 11 40 -16
63 -49 41z"/>
<path d="M1920 2510 c0 -18 5 -21 33 -18 20 2 32 8 32 18 0 10 -12 16 -32 18
-28 3 -33 0 -33 -18z"/>
<path d="M3002 2495 c-10 -22 -9 -25 8 -25 13 0 20 7 20 19 0 30 -16 33 -28 6z"/>
<path d="M3200 2510 c0 -24 41 -28 59 -7 14 18 4 27 -31 27 -21 0 -28 -5 -28
-20z"/>
<path d="M1533 2428 c2 -7 12 -13 22 -13 10 0 20 6 23 13 2 7 -6 12 -23 12
-17 0 -25 -5 -22 -12z"/>
</g>
</svg>
